<?xml version='1.0' encoding='utf-8'?>
<svg xmlns:xlink="http://www.w3.org/1999/xlink" xmlns="http://www.w3.org/2000/svg" width="210.13mm" height="207.76mm" clip-rule="evenodd" fill-rule="evenodd" image-rendering="optimizeQuality" shape-rendering="geometricPrecision" text-rendering="geometricPrecision" version="1.1" viewBox="0 0 21013 20776"> <defs> <style type="text/css">.str0 {stroke:#5B5B5B;stroke-width:7.62002} .fil2 {fill:#9D9E9E} .fil3 {fill:#B2B3B3} .fil9 {fill:#D9DADA} .fil0 {fill:#E31E24} .fil8 {fill:#EBECEC} .fil4 {fill:#FECC00} .fil10 {fill:#FEFEFE} .fil6 {fill:url(#i)} .fil13 {fill:url(#m)} .fil5 {fill:url(#j)} .fil7 {fill:url(#k)} .fil12 {fill:url(#n)} .fil14 {fill:url(#o)} .fil1 {fill:url(#l)} .fil11 {fill:url(#p)}</style> <linearGradient id="i" x1="12500" x2="13472" y1="11412" y2="11672" gradientUnits="userSpaceOnUse"> <stop stop-color="#EFC007" offset="0"/> <stop stop-color="#C5C6C6" offset=".5098"/> <stop stop-color="#EDBE06" offset="1"/> </linearGradient> <linearGradient id="m" x1="7899.7" x2="6927.3" y1="9571.6" y2="9311" gradientUnits="userSpaceOnUse" xlink:href="#i"/> <linearGradient id="j" x1="10946" x2="11847" y1="10995" y2="11237" gradientUnits="userSpaceOnUse"> <stop stop-color="#ECBE08" offset="0"/> <stop stop-color="#C5C6C6" offset="1"/> </linearGradient> <linearGradient id="k" x1="14095" x2="15012" y1="11839" y2="12085" gradientUnits="userSpaceOnUse"> <stop stop-color="#C5C6C6" offset="0"/> <stop stop-color="#EABC09" offset="1"/> </linearGradient> <linearGradient id="n" x1="9453.6" x2="8552.1" y1="9988" y2="9746.4" gradientUnits="userSpaceOnUse" xlink:href="#j"/> <linearGradient id="o" x1="6303.6" x2="5387.6" y1="9143.9" y2="8898.4" gradientUnits="userSpaceOnUse" xlink:href="#k"/> <radialGradient id="l" cx="57%" cy="55%"> <stop stop-color="#9D9E9E" offset="0"/> <stop stop-color="#C5C6C6" offset="1"/> </radialGradient> <radialGradient id="p" cx="43%" cy="45%" xlink:href="#l"/> </defs> <polygon class="fil0 str0" points="20961 13610 18051 14609 18928 17816 16732 17312 16871 20767 14132 18265 12299 19817 10862 17642 8074 20374 7055 16453 4893 17503 3967 15090 522 15660 2125 12749 7 11906 2141 9639 50 7079 2945 6142 2001 3033 4256 3477 4120 9 6858 2515 8693 973 10118 3130 12858 243 13925 4319 16099 3286 17023 5690 20469 5115 18863 8039 21007 8969 18855 11112"/> <path class="fil1 str0" d="m16307 9784c1320 354 2094 1747 1728 3111-365 1364-1732 2183-3052 1830-45-12-90-26-134-41 20-238 48-477 81-717 75 32 154 59 235 81 958 257 1950-338 2216-1328 265-991-297-2002-1255-2259-95-25-190-42-284-51 80-224 165-448 253-672 71 12 142 28 212 46z"/> <path class="fil2 str0" d="m14930 13967c75 32 154 59 235 81 958 257 1950-338 2216-1328 265-991-297-2002-1255-2259-82-22-164-37-245-47l-36-15c832-269 2030 1172 1709 2367-303 1133-1773 1954-2624 1201z"/> <path class="fil3 str0" d="m16700 8904c-930 2069-1611 4311-1706 6311-26 531-705 808-1262 658-1225-328-2450-656-3676-985-556-149-965-710-763-1200 778-1892 1395-4128 1707-6311 1900 509 3800 1018 5700 1527z"/> <path class="fil4 str0" d="m16466 8842c-902 2076-1508 4119-1637 6111-35 528-667 817-1178 680-1125-301-2249-603-3374-904-511-137-876-687-680-1178 757-1897 1304-3934 1637-6111 1744 467 3488 934 5232 1402z"/> <path class="fil5 str0" d="m11915 8951c204 55 299 262 272 471-160 1228-482 2412-953 3556-80 196-267 327-471 272-204-54-345-272-272-471 424-1157 762-2337 953-3556 32-209 267-327 471-272z"/> <path class="fil6 str0" d="m13562 9392c251 68 433 296 358 495-437 1153-755 2338-953 3556-34 209-305 316-557 249-252-68-433-296-358-495 436-1153 755-2338 952-3556 34-209 306-316 558-249z"/> <path class="fil7 str0" d="m15208 9834c205 54 355 276 273 471-507 1204-789 2385-953 3556-30 209-267 327-471 272-205-55-290-261-273-471 102-1223 414-2409 953-3556 90-192 267-327 471-272z"/> <path class="fil8 str0" d="m17329 9305c-432-33-868-230-1282-133-542 128-1042-171-1534-261-591-108-1189-16-1791-474-257-196-666-532-912-325-1085 911-2584-1346-755-1085 230-752 674-1039 1330-863 85 23 159 53 224 89 139-245 346-417 621-520 265-101 537-115 815-40 387 104 700 344 937 720 223-63 446-64 675-3 570 153 809 553 719 1204 60-3 130 6 209 27 217 58 374 170 468 334 93 165 110 356 52 572-16 60-39 127-69 200 233 131 331 315 293 558z"/> <path class="fil9 str0" d="m16610 9175c-388-32-781-208-1153-124-486 109-937-157-1380-239-532-98-1068-20-1612-427-232-173-540-354-822-291-1958 439-953-2099 506-1708 77 20 144 47 202 79 123-214 309-364 555-453 238-87 482-98 732-31 349 94 632 307 847 639 200-54 400-54 606 1 513 137 730 491 653 1062 54-2 117 6 188 25 196 52 337 152 422 296 85 145 101 314 51 503-14 53-35 112-61 176 210 116 299 278 266 492z"/> <path class="fil10 str0" d="m17325 9305c-263 444-1172 612-1536 88-234-338-744-110-1095-169-421-71-854 23-1273-337-179-153-419-310-646-240-211 65-372 8-469-208-102-224-409-204-609-318 159-250 349-364 568-344 188-626 516-876 982-751 61 16 113 39 158 66 108-205 262-353 463-447 194-91 389-110 587-57 275 74 493 262 652 565 162-59 323-67 486-23 405 109 564 431 480 970 44-4 94 1 149 16 155 41 181 251 327 261 449 32 814 704 776 928z"/> <path class="fil11 str0" d="m5416 6258c-1320-353-2687 466-3052 1830-366 1365 408 2757 1728 3111 46 12 91 23 137 32 101-217 197-437 288-662-81-10-163-25-244-47-958-257-1520-1268-1254-2258 265-991 1257-1586 2215-1329 95 26 186 58 272 98 42-234 81-470 117-709-68-24-137-47-207-66z"/> <path class="fil2 str0" d="m4517 10569c-81-10-163-25-244-47-958-257-1520-1268-1254-2258 265-991 1257-1586 2215-1329 82 22 161 50 236 82 13 1 26 3 38 5-585-649-2343 0-2663 1195-304 1133 559 2579 1672 2352z"/> <path class="fil3 str0" d="m5515 5300c-228 2256-760 4539-1677 6319-243 472 207 1051 763 1200 1226 328 2451 657 3676 985 557 149 1191-133 1262-658 271-2027 856-4272 1677-6319-1900-509-3800-1018-5701-1527z"/> <path class="fil4 str0" d="m5750 5363c-257 2248-754 4321-1638 6111-234 474 169 1041 680 1178 1125 301 2249 602 3374 904 511 137 1102-157 1178-681 292-2021 837-4058 1637-6111-1744-467-3488-934-5231-1401z"/> <path class="fil12 str0" d="m9636 7733c-204-55-390 77-471 272-475 1143-789 2329-953 3556-28 210 68 416 272 471 205 55 435-63 472-272 211-1214 508-2404 952-3556 76-197-67-416-272-471z"/> <path class="fil13 str0" d="m7990 7292c-252-68-524 40-558 249-198 1217-515 2402-953 3556-75 198 107 426 359 494 251 67 523-40 557-249 198-1217 515-2403 953-3556 75-198-107-427-358-494z"/> <path class="fil14 str0" d="m6343 6851c-205-55-445 62-471 272-164 1295-510 2460-953 3555-80 197 67 417 272 472 204 54 381-81 471-272 524-1110 846-2293 953-3556 18-211-68-417-272-471z"/> <path class="fil8 str0" d="m11666 7116c-433-26-867-230-1286-116-548 149-1045-163-1537-249-593-105-1196 8-1792-474-254-206-658-560-910-331-1111 1007-2570-1398-736-1155 248-817 700-1137 1356-961 85 23 159 54 223 91 145-267 358-457 636-575 269-114 542-135 821-60 387 104 697 356 927 758 225-73 450-79 679-18 569 153 801 580 697 1284 61-3 131 4 209 25 218 59 373 176 464 351 90 176 103 382 40 616-17 66-42 138-73 218 231 136 325 333 282 596z"/> <path class="fil9 str0" d="m10946 6991c-389-26-781-207-1157-109-491 127-939-149-1383-229-532-95-1074 1-1612-426-229-182-536-370-820-296-1979 515-914-2247 545-1856 77 20 144 48 201 81 129-234 319-400 568-501 241-99 487-116 737-49 349 94 629 317 838 671 202-62 404-66 610-11 513 137 724 514 634 1133 55-3 118 4 188 23 196 52 337 156 419 311 82 154 95 336 40 541-16 58-37 121-65 192 208 120 294 294 257 525z"/> <path class="fil10 str0" d="m11662 7116c-274 486-1191 686-1546 128-229-360-746-103-1098-159-422-68-859 43-1273-336-177-162-415-326-645-246-213 75-374 16-467-214-98-241-407-212-606-331 166-273 359-401 578-383 203-681 539-957 1005-832 60 16 113 39 157 68 113-225 271-388 475-493 197-102 394-127 592-74 275 73 490 272 644 596 164-67 326-79 488-35 405 108 559 453 463 1036 44-5 94 0 150 15 154 41 176 267 322 275 452 24 804 743 761 985z"/> <path class="fil4 str0" d="m2921 12645c-102-489-46-972 166-1448-81 341-82 704-1 1089 75 358 204 679 387 963 220 344 481 558 782 642-350-37-641-166-875-389-232-222-386-508-459-857z"/> <path class="fil4 str0" d="m2316 12908c-128-610-61-1213 201-1806-100 423-99 875 2 1357 94 450 256 852 482 1206 276 432 602 701 979 804-440-45-806-210-1099-494-284-272-473-629-565-1067z"/> <path class="fil4 str0" d="m1639 13180c-160-763-76-1516 253-2260-126 529-125 1097 1 1701 118 562 318 1065 602 1510 347 539 754 873 1221 1003-548-57-1006-261-1373-613-354-344-589-791-704-1341z"/> <path class="fil4 str0" d="m17858 7832c-273-418-654-721-1141-906 298 183 556 439 771 768 200 306 336 625 407 954 88 400 54 735-99 1008 222-274 336-571 344-894 7-321-87-632-282-930z"/> <path class="fil4 str0" d="m18472 7589c-341-521-814-900-1419-1134 369 228 688 549 958 961 251 384 422 783 512 1194 110 500 70 921-124 1260 280-343 422-719 428-1127 9-393-110-778-355-1154z"/> <path class="fil4 str0" d="m19143 7303c-426-652-1019-1125-1777-1419 464 285 865 687 1202 1203 315 481 529 978 642 1494 136 626 85 1150-154 1573 348-428 527-896 538-1405 7-493-143-976-451-1446z"/> </svg>