<?xml version='1.0' encoding='utf-8'?>
<svg xmlns="http://www.w3.org/2000/svg" width="516.74mm" height="370.26mm" clip-rule="evenodd" fill-rule="evenodd" image-rendering="optimizeQuality" shape-rendering="geometricPrecision" text-rendering="geometricPrecision" version="1.1" viewBox="0 0 47877 34305"> <defs> <style type="text/css">.str2 {stroke:#5A9129;stroke-width:7.05998} .str4 {stroke:#B24E3E;stroke-width:7.05998} .str0 {stroke:#D9913C;stroke-width:7.05998} .str3 {stroke:#E41E1D;stroke-width:7.05998} .str1 {stroke:#F2E40F;stroke-width:7.05998} .fil15 {fill:#212121} .fil10 {fill:#44701E} .fil2 {fill:#5A9129} .fil13 {fill:#7A4F1F} .fil11 {fill:#8F4034} .fil5 {fill:#A11B1B} .fil3 {fill:#A4E070} .fil8 {fill:#AB702C} .fil7 {fill:#B24E3E} .fil12 {fill:#D67061} .fil0 {fill:#D9913C} .fil4 {fill:#E41E1D} .fil6 {fill:#EBE267} .fil9 {fill:#F2B877} .fil1 {fill:#F2E40F} .fil14 {fill:#F2EEB3}</style> </defs> <path class="fil0 str0" d="m25385 4883c113 105 140 99 20 223-58-94-83-39-20-223zm-5476 6028c330 167 261 732 667 1291l5563-81c184-1 371 5 552-12 247-24 282-47 387-200 245-357 478-959 592-1414 58-231-38-114 108-212 132-158 271 16 240 205-63 378-575 1353-630 1599 891-55 1713-85 2637-127l5252-354c356-54 920-69 1312-78 459-11 849-103 1330-103 70-183 156-292 242-493 245-567 368-1222 461-1852 334-32 385 50 323 380-43 229-72 445-137 661-135 452-331 850-445 1226 1180-40 3727-582 4798-1075 398-183 462-190 624-590 591-1466 314-2458-707-3580l-416-472c-243-282-474-581-750-779l-1065-670c-163-85-314-94-474-165-233-104-111-130-377-204-255-71-258 0-480-146l-3481-1224c-789-271-2407-672-2780-809-444-162-2469-324-3188-426-1403-197-1885-241-3324-317-758-41-1456-130-2254-152-1786-49-2690 193-4278 468l-4069 664c-347 53-652 164-959 235-323 74-681 135-1006 191-228 39-677 182-912 233-1821 393-1667 495-3209 972l-1285 489c-368 129-119-79-846 359-268 161-490 327-717 490-628 452-906 563-1647 1125l-1057 942c-474 462-1045 1555-1332 2251-124 301-127 749-130 1115-5 618-7 530 257 914 686 1e3 1164 1172 2530 1142 1838-41 1981-330 4463-262l1897 47c-168-405-466-312-757-1290-32-105-60-172-73-296-14-140-19-200 52-323 290-71 200 135 504 711 635 1204 982 1054 1685 1058 1583 11 2291 42 3883 194 872 83 1758 118 2656 78-115-467-579-1032-230-1334zm-12747-2639c-8 212-14 250-135 342-238-33-162-45-139-287 27-283-58-242 95-412 205 34 189 120 179 357zm-1880-36c-108 409 137 553-359 485 31-404 165-1001 437-1141 209 215-11 400-78 656zm17480-877-190 135c-272-248-159-1137-46-1212 269-180 191 267 181 442-13 226 40 450 55 635zm-1765-3170c-2 119 84 181 37 306-291 180-293-188-273-282 71-339 182-336 264-369 69 166-26 175-28 345zm9455-938c-267-47-174-52-272-315-59-162-116-258-67-451 226-28 199 80 250 263 45 167 93 306 89 503zm-1749 3614c0-1-476-1213-50-1050 119 45 188 443 234 610 58 215 117 461-184 440zm-2235-3942c101 308 42 379-163 517-1 0-628-1260-122-1120 145 41 233 442 285 603zm-3403-1020c83 352 140 679-68 823-194-134-247-560-142-828l210 5zm8755 5490c-87-174-168-675-112-879 292 44 244 175 311 477 55 246 96 386-199 402zm715-3604c-139-117-149-328-264-509-121-191-215-312-126-531l192 3c104 116 137 295 210 458 104 231 351 435-12 579zm-14506-714c-94 306-2 617-364 570-57-207 277-1098 350-1195 368 27 91 374 14 625zm165 3890-234 109c-119-167-95-456-183-684-67-170-156-227-188-295-229-477 564-337 605 870zm-2599-1100c135 457 275 907-105 925-19-38-234-913-125-1133 189 15 181 42 230 208zm26914 1426c-45-169-111-225-138-389l147-131c240 106 229 217 312 501 80 273 121 342-60 533l-202-68c-38-136-14-277-59-446zm-7668-719c0-1-297-1173-16-1211 292 73 185 376 225 689 35 270 118 548-209 522zm1509-1202c-56-209-63-450-139-696-74-242-168-365 97-449 214 219 162 338 269 648 101 291 167 469-227 497zm-1669 4645c63-358-6-345-28-630 162-154 24-107 231-140 242 255 107 1075-123 1195-300 155-105-287-80-425zm-23117-4527c0 1-93 1110-244 1165-305 112-96-589-91-612 75-330-10-568 170-779 140 62 156 41 165 226zm-1126-892c-337 466-152 680-386 883-522 454-84-1115 455-1410 184-101 353-17 236 189-68 119-207 203-305 338z"/> <path class="fil0 str0" d="m33211 27541c-3041-335-5512-166-8564-123-721 10-1366 97-2152 90-1059-9-3626-148-4390-96-800 55-1334-37-2061-92-1061-80-439-159-2098-173-1061-10-2156-94-3156-149l-3082-263c-950-111-2700-208-3475-393-171-41-215-94-314-183l-261 274c-73 111-99 161-167 251-415 553-585 1173-629 1905-91 1517 2318 2870 3448 3269 828 292 1826 586 2851 535l35 57c23 24-21 7 69 42 87-61 30-44 159-65l1334 68c2152 283 2371 187 4486 214 529 7 1039 60 1518 88 581 33 914-98 1420-100 965-4 2083 38 3044 99 1024 64 2047 120 3094 97 1003-22 2005-54 3044-22 1052 33 1972 65 2992 150 1403 117 4487-15 5982-86 499-24 919-99 1470-113 526-13 2108-250 2732-324 398-47 884-184 1269-228 484-55 920-139 1364-197 927-123 2343-1219 2411-2304 108-1744 181-1259-543-2449-137-225-132-297-407-391-665-227-696-211-1255-40-188 58-355 109-624 108-666 0-908 318-2835 233-285 413-286 820-931 1282-175 125-204 185-460 269-1046 344-1237-843-1217-1540-1119 318-2039 250-3066 287-321 11-686 52-1035 13zm-202 1660c-192 135-58 109-246 149-153-243 8-294-70-602-62-245-242-440 229-377 95 209 109 539 87 830zm-2614 2095c-64 263-59 466-319 470-109-212 54-418 96-663 14-76-9-655 229-528 185 100 37 547-6 721zm-14379-2820c30 310 208 578 3 829-378-64-431-1424-158-1541 340-146 125 395 155 712zm-4307-220c-23 154-43 119-18 294 36 246 120 308 180 525-64 36-99 68-153 112-252-188-308-224-314-659-4-294-6-707 293-592l31 176c-1 58-11 88-19 144zm-5982-1024c76 366-134 376-58 880 59 391 100 468-139 682-265-116-233-560-227-917 6-384-34-717 424-645zm14382 3589c201 125-548 1180-893 1285-146-197-23-214 124-345 512-456 516-1097 769-940zm-12401 218c93 285 202 395 45 565-177-100-629-1014-248-1175 83 149 149 443 203 610zm2709-354c171 383 458 433 276 610-267 262-869-946-663-1146 272-264 300 340 387 536zm14352-1739c-58 616-11 698-299 726-63-256 52-1742 359-1588 176 89-42 662-60 862zm-533 3265c-163 195-173 38-174 38-117-87-87 0-49-222 113-654 24-750 357-704 23 221-3 410-42 607-13 69-49 228-92 281zm14002-322c-101-180 16-440 31-688 17-283-10-374 284-392 153 219 68 348 8 676-45 247-77 470-323 404zm-3659-464c-138-183-66-116 18-347 125-345-9-625 61-792 40-94 173-178 283-61 102 109 38 1409-362 1200zm7591 103-268-57c-14-301 117-442 158-732 39-271-140-489 186-566 300 331-3 939-76 1355zm1190-2323c-132-190 0-366-94-716-102-386-320-519-108-647 377-227 496 887 497 1207-108 83-112 112-295 156z"/> <path class="fil1 str1" d="m40623 20528c-125 265-296 1041-325 1358 208 22 1129-143 1407-193 669-120 2215-146 2674-512 303-243 438-589 513-1087-707 195-1212 61-2e3 142-673 68-1383-21-2043-73-77 145-165 234-226 365z"/> <path class="fil1 str1" d="m5515 21380c39-317 143-258 314-427 172-171 123-230 368-108-9 223-50 244-169 364-107 105-130 160-253 265-128-37-146-28-260-94zm1027-175c90-64 250-260 338-178 218 202-398 560-540 605l-115-146c97-137 164-173 317-281zm3291 1140c-35-364-202-1113-378-1392-506-6-1535-171-2002-284l-1130-146c-280-38-526-44-854-60l-2306-326c46 1182 628 1283 1754 1605l2898 443c707 84 1405 74 2018 160z"/> <path class="fil2 str2" d="m23185 16050c1025 456 2835 1601 3621 1753 680 130 957-15 1485-236 862-360 1714-655 2588-962 755-266 2254-429 3115-228 243 57 486 167 703 202 378 61 423 82 734 164 275 72 492 76 771 129 346 66 339 153 689-6 409-186 851-377 1240-532 1283-511 2590-1280 4029-1351 1222-60 2956 766 3967 182 150-87 268-351 374-521 257-413 262-1016 178-1577-90-600-300-829-565-1217-326-476-977-1045-1594-1146-365-60-779 542-2047 929-194 60-178 79-321 155-385 204-2510 428-3055 466-283 19-477 118-737 145-534 57-1076 127-1625 130-1062 5-4151 56-5195 168l-1579 179c-612 45-994 185-1528 237l-2407 249c-665 76-2837 187-3471 104l-1994 36c-1136-11-2398-181-3369-43-756 107-2692-61-3462-178-2054-313-3206-194-5129-165-629 10-1107 75-1733 69-1732-18-2128 201-3554-663-190-116-231-113-339-283-615 165-1864 1798-2092 2434-239 662-256 779-151 1444 47 294 50 480 210 694 261 347 497 634 1055 738 606 113 1017 75 1600-42 480-97 946-227 1420-354l1755-477 1356 41c671 79 2907 1147 3986 1387 1513 335 2103 62 3606-506l1899-818c415-176 939-430 1272-502 1279-276 2314-1109 4294-228zm-3735-702c-57 50-345 150-450 182-2695 808-3525 1577-6404 1398-98-6-1891-137-1257-467 118-61 336 26 484 57 994 211 2711 164 3575-93 369-110 643-233 974-334l2934-955c165-56 296 80 144 212zm-9836 475-7 281-211 2-12-285 230 2zm843 474c-173 176-225 1-228 0-55-173-38-78 44-243 215-5 140-24 253 54-29 60-1 120-69 189zm28152-1392c395-236 357-67 362-64 40 170-78 203-199 276-487 293-443-45-163-212zm-36266 1760c-131 131-78 140-241 199-887-549-680-2927 439-3532 167-90 297-24 188 189-107 210-557 312-734 1179-299 1463 265 1697 348 1965zm922-314c-28 110-60 213-111 315-258-15-251-138-399-325-308-390-298-642-296-1094 1-230-21-378 214-384 133 194 97 602 167 865 103 393 174 413 425 623zm36769-1727c-82-110-90-70-83-263l1339-423c540-71 1078-133 1674-109 721 29 2348 186 2714 839l-155 173c-307-49-790-746-2668-722-555 7-1033 51-1553 136-382 63-1034 399-1268 369z"/> <path class="fil3" d="m3752 14537c-802-55-1476 10-1490 401-14 392 634 1110 1642 1359 1008 248 2377 28 2855-276 477-305 62-692-608-973-671-281-1598-456-2399-511z"/> <path class="fil4 str3" d="m23764 23819c-2607-861-4374-745-6924-1110-1256-181-2493 9-3701 66-107 255-131 643-215 933-366 1263-494 1481-1381 2029-574 355-1335-94-1384-642-26-294 24-234-76-509-105-287-149-1124-167-1482-186-133-471-193-698-224-246-34-568-34-788-56-1466-145-1470-46-3181-314-595-94-1229-315-1395-335-244 301-341 311-625 791-261 439-172 1275-87 1494 210 538 637 1017 1206 1229 665 247 4056 495 4989 544 913 47 1879-2 2780 69 881 70 1754 90 2677 110 2717 60 5435 261 8130 173l8178 82c269 67 2303 136 2683 139 816 6 2494-224 3205-227 334-1 384 60 445-250 344-1779 283-1921 246-3703-764 50-911 64-1620 337-540 208-1932 1220-2438 1540-897 567-1587 1343-2346 1625-424 158-390 125-769-19-135-50-264-42-430-103-313-115-1207-290-1952-534-449-147-1032-385-1440-564l-2922-1089zm-936 519c-219 100-142 251-371 68 26-436 1092-530 1365-223 182 205 52 629-79 776-223 251-1011 361-870-256 341-14 139 307 519 170 160-58 224-250 162-419-85-235-541-200-726-116zm-3617-723c1313-753 1411 1339 398 1097-151-37-269-166-327-287l155-150c293 72 45 114 365 170 302-237 220-560 8-678-405-225-806 452-898 494-330-237 56-507 299-646zm-2775 944c95 14 76-5 179 30 144 470-555 305-702 61-226-373 40-747 251-921 192-158 853-252 1083-69 355 283-32 815-186 241-399-21-1025 29-858 613l233 45zm19685 486c110-178 185-292 79-553-441-173-532 380-761 15 75-318 630-387 787-359 322 57 410 378 322 756-189 805-1159 226-766 23 134-70 44-15 141 33 183 89-108 44 198 85zm-2467 1e3c-307-570 627-1135 705-753 45 219-250 121-369 340-110 199 8 284 8 284 110 60 135 100 271 3 10-7 20-19 29-28l68-101c214-285 411-22 284 237-172 351-821 343-996 18zm-7608-276c14-167 76-238 197-323 723-509 1495 310 940 545-171-102-90-75-143-335-339-53-358-100-653 35 46 411 262 124 150 426-61 161-201 57-284 3-143-95-226-134-207-351zm-2370 218c15-374 909-1292 1302-598 176 311-10 380-206 448-53-117-35-124-68-218-69-198 100-61-107-167-352-181-479 650-921 535zm-3155-141c-326-702 1483-1002 1024 109l-234 5c-87-236 138-531-283-452-401 76-141 252-507 338zm-16339-3160c123 214 230 791-164 799-155-212-49-135-18-311 35-198-66-170-73-420l255-68zm3603 1707 345 107c41 773-1275-295-427-828 958-602 1713 126 1219 388-175-126-29 1-127-128-165-218-230-352-805-82-293 137-248 217-205 543zm-1795-326c79 413-145 683-347 835-13 10-690 418-718-42 167-94 449-110 608-226 457-334-78-992-507-627-178 151-125 379-409 113 26-629 1246-718 1373-53zm7568 1175c162 135 171 46 300 217-219 583-1142-343-305-952 177-129 690-223 1003-83 301 135 296 551-64 607-171-223-4-147-90-346-501-50-883 26-844 557zm-4704-393c650-163 855 264 681 531-375 13-10-168-414-248 29 273 13 71 85 209 35 67 77 68 55 157-69 270-654 65-407-649zm-2018 136c63 4 650 166 440 639-239-145-65-27-242-187-476-431-391 360-740 207l-11-145c48-266 232-537 553-514zm10987 237c879-476 1522 508 861 603-130-212-3-695-840-225 51 148 199 276 122 404-172 282-779-437-143-782z"/> <path class="fil4 str3" d="m41520 24696c466 544 96 1483-364 1137 16-390 138-105 246-378 17-45 25-255 11-297-50-146 24-103-148-123-415-47-511 432-696 524-519-274 452-886 951-863zm-1483-86c-52 696 49 1239-31 1976 517-5 1372-64 1903-126 1081-128 2153-206 3020-891 318-251 666-723 606-1365-62-663-351-958-664-1336-396-479-477-797-1150-669-612 117-1066 188-1750 172-614-15-1155 120-1776 155-67 691-109 1418-158 2084zm1120-1308c679-247 690 908-110 784l-90-252c32-7 214-27 217-27 214-61 79 43 177-123-172-292-138 112-452-48l258-334zm2033-156c-316 67-469 321-743 273-59-478 1174-807 1412-397 66 116 105 317 74 471-122 605-988 428-926 234 91-284 182-12 542-93 161-292 116-588-359-488zm516 2245c-242 129-344-149-403-318-177-508 673-629 916-582 301 59 447 80 448 390-370 163-145-57-473-116-193-34-441 89-567 156 11 289 167 249 79 470z"/> <path class="fil5" d="m3886 24807c1001 57 2984 372 5405 546 2421 175 5281 208 9325 320 4044 111 9271 300 12668 340 3398 40 4966-69 6809-238 1842-170 3958-400 5309-603s1936-378 2107-221-71 646-531 996-1136 560-3179 718c-2043 159-5451 264-9460 308s-8619 26-12481-38c-3862-63-6976-173-9644-332-2667-159-4887-367-6041-618-1155-250-1242-543-1276-789-33-246-13-447 989-389z"/> <path class="fil1 str1" d="m29148 24025c-202-64-232-126-42-483 123-231 93-393 352-407 32 260-1 250-108 456-104 201-47 331-202 434zm-2504 51c856 394 1872 977 2785 1277 630 207 969 297 1501-98 547-406 1621-1326 2227-1756 896-634 2438-1125 3555-1402 247-61 569-117 809-188-466-1880 12-1502-1293-1815-456-110-1493-272-1939-280-378-8-649 55-999 45-704-20-1501-51-2201-20l-1833 79c-405 84-417 145-956 137l-1887 187c-656-11-258 68-890 39-339-15-627 82-1002 89-302 6-722 29-1044 58-1062 99-1167-32-1527-17l-345 38c-29-70-286 872-1024 1109-330 106-1029-73-1245-731-330 9-457-46-748-51-1089-17-1463 129-2104 153-143 5-2423-404-2794-113-106 83-228 561-284 735-83 261-150 504-194 766 267-22 552-150 848-197 311-49 553-87 889-110 573-38 1229-88 1759-46l1808 184c649-8 1340 73 1940 79 2106 23 3788 620 5551 1487 226 111 376 242 637 362zm-2327-1979c207 43 330 42 538 101 310 88 658 168 683 504-280 100-505-144-913-242-232-55-916-104-763-364 99-169 265-38 455 1zm8755 195c166-130 214-98 340 39-69 208-1546 1551-1820 1795-62 55-540 659-590 269-26-200 385-531 527-652 545-463 816-885 1543-1451zm-2938 1639c-66-176 164-377 391-633 126-141 67-125 267-160 144 245-19 261-179 463-55 70-113 186-174 248-159 163-199 124-305 82z"/> <path class="fil6" d="m31182 21547c-1885-31-4746 8-5860 186-1113 178-479 496 382 879 861 384 1948 834 2681 1262 733 427 1111 833 1393 918 281 85 466-149 1301-704 836-555 2322-1431 2610-1919 289-489-621-591-2507-622z"/> <path class="fil7 str4" d="m24336 17403c-260-171-360-215-607-258-160-28-352-180-560-269-530-229-1465-578-2063-597-877-29-1258 205-2213 410l-1246 536c-354 202-753 372-1175 548-1100 460-2843 1348-4008 1104-341-72-1576-348-1847-572-387-319-44-55-586-318l-151-63c-211-93-101-88-286-175l-945-324c-167-33-309 2-463-12-97-9-234-59-341-83-727-163-934-20-1529 68-1376 201-753 216-1362 363-586 142-1582 465-2113 460 36 753 157 1148 751 1353 585 203 1148 213 1834 244 1440 67 2563 271 3782 347-49-143-70-139-120-253-130-296-214-505-183-851 343 13 655 760 796 1071 431 949 390 1502 561 2189 89 361 201-22 144 294-26 139-106 15-99 386 8 468 127 1202 243 1588 718 146 1218-199 1477-638l852-2428c59-261 143-579 241-810 146-343 587-1214 921-1141 223 127-112 348-186 775 441-63 693-182 1221-206 2110-97 1814-48 3951 41-40-433-585-1154-392-1455 335 133 786 1666 1130 2140 760 38 1161-507 1413-1035 487-1022 433-1559 984-1156l-337 1038c1368-118 2650-76 3935-269 1419-213 2185-333 3642-477 1391-138 2414-243 3847-133 1443 111 2159 244 3575 602-26-206-50-161-121-315-57-127-45-177-118-297-107-175-274-268-199-570 263-38 316 121 433 286 108 153 210 306 315 469 343 530 998 2946 1008 3586 12 859 6 2077-179 2856-113 475-179 802-112 1368 60 503 35 1035 301 1254 123-158 275-258 415-417 133-152 260-289 372-475 231-385 395-625 416-1211 19-516 121-1158 92-1630-31-481-141-923-68-1498 120-937 260-1905 575-2743 129-341 738-1657 1098-1798 111-44 58-35 172-20 420 57-43 699-44 1034 308 24 624-61 985-68 804-14 2204-55 2873-252 1555-459 1472-1531 1426-2873-1851 236-1315-41-2994-354-498-93-1149-90-1673-10-767 118-2881 1157-3715 1518-361 156-921 324-1330 376-427 55-959-82-1397-179-614-136-857 96-1473-217-553-282-359-89-707-197-588-184-1811-139-2288 14l-2666 835c-1539 662-1811 406-3340-213-495-200-210-75-545-293zm-12196 4702c44 215-35 256-185 310-72-68-63-52-125-128 36-226 118-292 310-182zm610-1282c-60 151-117 335-171 462-96 224-100 182-272 294l-114-123c67-314 364-979 473-1311 38-117 140-407 318-216 131 141-165 718-234 894zm27066-1543c-151 65-223-17-208-168 23-228 661-914 849-1096 156-151 962-894 1086-417-149 226-401 213-612 371-158 119-297 331-460 483-184 172-315 294-451 552-63 119-94 229-204 275zm-10461-770c-61-191-80-407 228-273 0 0 140 96 11 224-82 80-97 47-239 49zm445-314c74-144 55-188 271-168 208 278-88 475-271 168zm1533-238c-391 101-532 217-764 37 40-243 67-181 332-250l950-206c226-32 257-48 254 212-210 105-518 142-772 207zm-8066-172-277 9c-133-358 117-481 391-302-19 196-13 170-114 293zm15583 3699c-162-49-176-288 102-340 47 88 166 421-102 340zm-16574-4270c-7 132 21 161-127 216-104 39-170-18-190-82-80-253 195-237 317-134zm-10537 5677c162 30 172 39 197 236l-144 132-179-117c34-191 30-160 126-251zm27431-2332c-373-64-223-378 14-384 187 255-9 322-14 384zm47-894c128-121 221 12 221 12 210 502-533 284-221-12z"/> <path class="fil8" d="m33860 2140c1111 833 3914 2633 4991 3985s429 2255-708 2843c-1136 588-2761 860-4423 1151-1661 290-3359 598-4891 680-1531 82-2896-61-2645-487 251-425 2118-1132 2908-1715 790-582 504-1041-1045-1032s-4360 486-5213 931c-852 446 254 860 833 1276 578 417 627 837 241 1124s-1207 441-2030 687c-823 245-1647 581-1332 904s1769 631 3747 573c1978-59 4479-485 7251-753 2773-268 5817-378 7997-617 2181-238 3497-605 4206-1262s811-1603 729-2296c-83-694-351-1134-583-1556s-428-825-715-1184c-288-358-666-672-1753-1241-1087-568-2881-1391-4251-1863s-2316-592-3080-719c-763-128-1345-262-234 571z"/> <path class="fil9" d="m20100 2388c-1721-12-4349 285-6468 798-2120 512-3732 1241-4360 1953s-271 1409 489 1828 1925 560 3170 1c1246-560 2573-1820 4340-2591 1767-772 3975-1056 4671-1357 696-302-120-621-1842-632z"/> <path class="fil10" d="m2933 12753c469 434 1737 1050 3237 1286 1501 237 3233 93 5137 107 1904 13 3979 183 6210 264s4618 73 6797-2c2178-74 4147-215 6638-496 2490-280 5501-700 7964-926 2462-226 4376-258 5448-18s1303 753 1243 1244c-61 492-413 961-397 1180s399 187 783 73 769-310 1010-671c241-362 338-889 280-1409-57-520-270-1033-611-1474s-810-811-1180-1098-641-490-887-493-467 195-862 445-963 554-2305 820c-1343 267-3459 497-5721 698-2261 201-4669 373-6675 568-2007 195-3613 413-5215 358-1603-55-3203-384-5378-528-2176-144-4928-104-7133-39-2206 66-3865 155-5003 115-1138-41-1756-212-2200-391-445-178-716-363-1017-331-301 33-632 285-163 718z"/> <path class="fil11" d="m2670 18043c-129 181 12 529 805 502 793-28 2237-430 3522-469 1285-40 2411 283 3319 586 907 302 1596 583 2571 549s2237-383 3536-842c1299-458 2636-1026 3785-1167 1150-141 2112 143 2928 454 817 310 1487 646 2222 882 735 237 1535 374 2531 185 995-189 2185-703 3144-892s1686-53 2432 10c747 64 1512 54 2277 54 766 0 1531 9 2233-46 702-56 1341-176 2009-387 667-210 1363-512 2074-558 711-47 1438 162 2037 306 600 144 1073 222 1483 218s757-91 905-326c149-236 99-619 75-911-24-291-22-492-166-594-145-102-436-105-1083-104-647 2-1649 8-2506 35-856 26-1568 72-2317 282-750 210-1537 583-2224 885s-1273 532-1965 514c-692-17-1491-281-2327-455s-1710-257-2394-165-1179 360-1775 617c-595 257-1290 504-1784 644-493 140-785 173-1104 123-318-49-662-180-1225-378-562-198-1343-463-1977-753-634-289-1123-605-1549-756s-791-137-1156-86c-365 50-731 137-1325 294s-1416 384-2204 721c-787 337-1539 784-2226 1085-687 302-1308 459-2e3 423-692-35-1455-263-2271-546-817-283-1688-621-2378-830-689-208-1199-287-1792-203s-1270 331-1819 507c-548 176-969 280-1379 339-411 59-812 72-942 253z"/> <path class="fil12" d="m39710 21336c-157 194-464 755-644 1286-179 531-230 1031-427 1470-196 440-538 819-738 1167s-258 667-227 1118 152 1036 289 1393 290 486 569 425c278-60 682-310 915-731 232-421 294-1013 344-1786 50-774 89-1730 102-2459s1-1230-9-1567-17-510-174-316z"/> <path class="fil12" d="m12523 22074c-281-260-829-572-1185-531-355 42-520 436-556 821-36 384 55 759-32 1004s-353 360-464 529c-112 170-69 394 63 623s352 464 627 518c275 53 604-75 876-339 272-263 486-661 641-1008 154-347 249-642 288-894 40-252 24-462-258-723z"/> <path class="fil8" d="m43729 27036c-33 473 302 1425 148 2142-154 718-798 1203-2752 1626-1955 423-5221 786-7172 954-1952 169-2589 143-2494-202s923-1010 134-1374c-788-365-3192-430-4496-354-1303 76-1506 292-1026 480 481 188 1645 347 1653 466 8 118-1141 196-3303 407-2162 212-5336 557-7588 685-2252 129-3581 40-3813-318-233-358 631-986 433-1234-197-248-1456-117-1978 168-523 286-310 725-731 912-421 186-1477 119-2679 14-1201-106-2547-249-2941-117-393 132 167 540 929 831s1725 467 4164 678 6354 457 10853 574 9583 104 13502-23 6673-368 8481-748c1808-379 2671-898 3072-1676 401-779 340-1818 103-2577s-651-1238-957-1487c-307-250-507-271-808-283-300-13-701-18-734 456z"/> <path class="fil13" d="m45004 27655c-252 448-383 1539-677 2128s-750 674-1267 882c-518 208-1095 539-1781 727-685 187-1478 233-2538 439-1059 206-2384 573-3526 851s-2101 467-2148 553c-46 86 819 69 2542 26 1722-44 4301-114 5966-331 1666-217 2417-582 3e3 -976s998-817 1241-1334c243-516 314-1126 315-1645 2-519-66-948-285-1260-220-313-591-508-842-60z"/> <path class="fil14" d="m30754 22749c-942-61-2536-98-3172 127s-313 712 246 1151c560 439 1357 831 1963 829s1020-398 1403-776c382-378 733-738 763-961s-261-308-1203-370z"/> <path class="fil9" d="m7534 6702c-613 184-1592 582-2095 1073-502 491-527 1073-109 1593 417 520 1277 976 2181 841 903-135 1850-862 2045-1566 195-703-362-1384-763-1740-401-355-647-385-1259-201z"/> <path class="fil15" d="m3919 26159c99 89 143 142 314 183 775 185 2525 282 3475 393l3082 263c1e3 55 2095 139 3156 149 1659 14 1037 93 2098 173 727 55 1261 147 2061 92 764-52 3331 87 4390 96 786 7 1431-80 2152-90 3052-43 5523-212 8564 123 349 39 714-2 1035-13 1027-37 1947 31 3066-287-20 697 171 1884 1217 1540 256-84 285-144 460-269 645-462 646-869 931-1282 1927 85 2169-233 2835-233 269 1 436-50 624-108 559-171 590-187 1255 40 275 94 270 166 407 391 724 1190 651 705 543 2449-68 1085-1484 2181-2411 2304-444 58-880 142-1364 197-385 44-871 181-1269 228-624 74-2206 311-2732 324-551 14-971 89-1470 113-1495 71-4579 203-5982 86-1020-85-1940-117-2992-150-1039-32-2041 0-3044 22-1047 23-2070-33-3094-97-961-61-2079-103-3044-99-506 2-839 133-1420 100-479-28-989-81-1518-88-2115-27-2334 69-4486-214l-1334-68c-129 21-72 4-159 65-90-35-46-18-69-42l-35-57c-1025 51-2023-243-2851-535-1130-399-3539-1752-3448-3269 44-732 214-1352 629-1905 68-90 94-140 167-251l261-274zm36087 427c80-737-21-1280 31-1976 49-666 91-1393 158-2084 621-35 1162-170 1776-155 684 16 1138-55 1750-172 673-128 754 190 1150 669 313 378 602 673 664 1336 60 642-288 1114-606 1365-867 685-1939 763-3020 891-531 62-1386 121-1903 126zm-36152-4411c166 20 800 241 1395 335 1711 268 1715 169 3181 314 220 22 542 22 788 56 227 31 512 91 698 224 18 358 62 1195 167 1482 100 275 50 215 76 509 49 548 810 997 1384 642 887-548 1015-766 1381-2029 84-290 108-678 215-933 1208-57 2445-247 3701-66 2550 365 4317 249 6924 1110l2922 1089c408 179 991 417 1440 564 745 244 1639 419 1952 534 166 61 295 53 430 103 379 144 345 177 769 19 759-282 1449-1058 2346-1625 506-320 1898-1332 2438-1540 709-273 856-287 1620-337 37 1782 98 1924-246 3703-61 310-111 249-445 250-711 3-2389 233-3205 227-380-3-2414-72-2683-139l-8178-82c-2695 88-5413-113-8130-173-923-20-1796-40-2677-110-901-71-1867-22-2780-69-933-49-4324-297-4989-544-569-212-996-691-1206-1229-85-219-174-1055 87-1494 284-480 381-490 625-791zm9358 142c44-262 111-505 194-766 56-174 178-652 284-735 371-291 2651 118 2794 113 641-24 1015-170 2104-153 291 5 418 60 748 51 216 658 915 837 1245 731 738-237 995-1179 1024-1109l345-38c360-15 465 116 1527 17 322-29 742-52 1044-58 375-7 663-104 1002-89 632 29 234-50 890-39l1887-187c539 8 551-53 956-137l1833-79c700-31 1497 0 2201 20 350 10 621-53 999-45 446 8 1483 170 1939 280 1305 313 827-65 1293 1815-240 71-562 127-809 188-1117 277-2659 768-3555 1402-606 430-1680 1350-2227 1756-532 395-871 305-1501 98-913-300-1929-883-2785-1277-261-120-411-251-637-362-1763-867-3445-1464-5551-1487-600-6-1291-87-1940-79l-1808-184c-530-42-1186 8-1759 46-336 23-578 61-889 110-296 47-581 175-848 197zm-10049-2180 2306 326c328 16 574 22 854 60l1130 146c467 113 1496 278 2002 284 176 279 343 1028 378 1392-613-86-1311-76-2018-160l-2898-443c-1126-322-1708-423-1754-1605zm37135 1749c29-317 200-1093 325-1358 61-131 149-220 226-365 660 52 1370 141 2043 73 788-81 1293 53 2e3 -142-75 498-210 844-513 1087-459 366-2005 392-2674 512-278 50-1199 215-1407 193zm882-2570c1-335 464-977 44-1034-114-15-61-24-172 20-360 141-969 1457-1098 1798-315 838-455 1806-575 2743-73 575 37 1017 68 1498 29 472-73 1114-92 1630-21 586-185 826-416 1211-112 186-239 323-372 475-140 159-292 259-415 417-266-219-241-751-301-1254-67-566-1-893 112-1368 185-779 191-1997 179-2856-10-640-665-3056-1008-3586-105-163-207-316-315-469-117-165-170-324-433-286-75 302 92 395 199 570 73 120 61 170 118 297 71 154 95 109 121 315-1416-358-2132-491-3575-602-1433-110-2456-5-3847 133-1457 144-2223 264-3642 477-1285 193-2567 151-3935 269l337-1038c-551-403-497 134-984 1156-252 528-653 1073-1413 1035-344-474-795-2007-1130-2140-193 301 352 1022 392 1455-2137-89-1841-138-3951-41-528 24-780 143-1221 206 74-427 409-648 186-775-334-73-775 798-921 1141-98 231-182 549-241 810l-852 2428c-259 439-759 784-1477 638-116-386-235-1120-243-1588-7-371 73-247 99-386 57-316-55 67-144-294-171-687-130-1240-561-2189-141-311-453-1058-796-1071-31 346 53 555 183 851 50 114 71 110 120 253-1219-76-2342-280-3782-347-686-31-1249-41-1834-244-594-205-715-600-751-1353 531 5 1527-318 2113-460 609-147-14-162 1362-363 595-88 802-231 1529-68 107 24 244 74 341 83 154 14 296-21 463 12l945 324c185 87 75 82 286 175l151 63c542 263 199-1 586 318 271 224 1506 500 1847 572 1165 244 2908-644 4008-1104 422-176 821-346 1175-548l1246-536c955-205 1336-439 2213-410 598 19 1533 368 2063 597 208 89 400 241 560 269 247 43 347 87 607 258 335 218 50 93 545 293 1529 619 1801 875 3340 213l2666-835c477-153 1700-198 2288-14 348 108 154-85 707 197 616 313 859 81 1473 217 438 97 970 234 1397 179 409-52 969-220 1330-376 834-361 2948-1400 3715-1518 524-80 1175-83 1673 10 1679 313 1143 590 2994 354 46 1342 129 2414-1426 2873-669 197-2069 238-2873 252-361 7-677 92-985 68zm-34312-6131c626 6 1104-59 1733-69 1923-29 3075-148 5129 165 770 117 2706 285 3462 178 971-138 2233 32 3369 43l1994-36c634 83 2806-28 3471-104l2407-249c534-52 916-192 1528-237l1579-179c1044-112 4133-163 5195-168 549-3 1091-73 1625-130 260-27 454-126 737-145 545-38 2670-262 3055-466 143-76 127-95 321-155 1268-387 1682-989 2047-929 617 101 1268 670 1594 1146 265 388 475 617 565 1217 84 561 79 1164-178 1577-106 170-224 434-374 521-1011 584-2745-242-3967-182-1439 71-2746 840-4029 1351-389 155-831 346-1240 532-350 159-343 72-689 6-279-53-496-57-771-129-311-82-356-103-734-164-217-35-460-145-703-202-861-201-2360-38-3115 228-874 307-1726 602-2588 962-528 221-805 366-1485 236-786-152-2596-1297-3621-1753-1980-881-3015-48-4294 228-333 72-857 326-1272 502l-1899 818c-1503 568-2093 841-3606 506-1079-240-3315-1308-3986-1387l-1356-41-1755 477c-474 127-940 257-1420 354-583 117-994 155-1600 42-558-104-794-391-1055-738-160-214-163-400-210-694-105-665-88-782 151-1444 228-636 1477-2269 2092-2434 108 170 149 167 339 283 1426 864 1822 645 3554 663zm3424-1119c-2482-68-2625 221-4463 262-1366 30-1844-142-2530-1142-264-384-262-296-257-914 3-366 6-814 130-1115 287-696 858-1789 1332-2251l1057-942c741-562 1019-673 1647-1125 227-163 449-329 717-490 727-438 478-230 846-359l1285-489c1542-477 1388-579 3209-972 235-51 684-194 912-233 325-56 683-117 1006-191 307-71 612-182 959-235l4069-664c1588-275 2492-517 4278-468 798 22 1496 111 2254 152 1439 76 1921 120 3324 317 719 102 2744 264 3188 426 373 137 1991 538 2780 809l3481 1224c222 146 225 75 480 146 266 74 144 100 377 204 160 71 311 80 474 165l1065 670c276 198 507 497 750 779l416 472c1021 1122 1298 2114 707 3580-162 400-226 407-624 590-1071 493-3618 1035-4798 1075 114-376 310-774 445-1226 65-216 94-432 137-661 62-330 11-412-323-380-93 630-216 1285-461 1852-86 201-172 310-242 493-481 0-871 92-1330 103-392 9-956 24-1312 78l-5252 354c-924 42-1746 72-2637 127 55-246 567-1221 630-1599 31-189-108-363-240-205-146 98-50-19-108 212-114 455-347 1057-592 1414-105 153-140 176-387 200-181 17-368 11-552 12l-5563 81c-406-559-337-1124-667-1291-349 302 115 867 230 1334-898 40-1784 5-2656-78-1592-152-2300-183-3883-194-703-4-1050 146-1685-1058-304-576-214-782-504-711-71 123-66 183-52 323 13 124 41 191 73 296 291 978 589 885 757 1290l-1897-47zm34680-1797c101-348 306-315 371-722 41-257 31-735-18-989-231-1180-586-1883-1327-2731-337-387-616-734-954-1091l-566-481c-624-422-1318-790-1995-1108-2070-971-3999-1524-6216-2066-1016-248-4370-619-5521-742l-1835-228c-1095-79-2928-180-3995-45-2381 299-6532 759-8848 1401-1473 408-1379 217-3170 895-467 177-1017 324-1531 500-3049 1045-4150 1881-5966 4347-369 500-588 1097-888 1691-243 481-286 628-259 1256 12 280 104 494 139 783 41 343 220 421 256 745l-125 102c-525 354-1040 674-1422 1194-861 1173-1609 2718-659 4060 325 460 845 886 1391 1070 432 145 112 523 721 1432l260 330c-560 1270 450 1624 661 2075-1757 723-1406 3202-148 3941-62 258-360 530-540 768-718 948-659 1884-407 2972 121 523 679 1091 1087 1414 161 128 185 203 310 321 100 95 243 202 346 285 210 169 471 357 836 381 216 397 433 327 1068 656 130 68 494 116 682 168 297 82 341 139 597 245l4352 804c567 20 1072-47 1582-52 477-4 1107 88 1621 96l6821 102c1332 1 1714-187 3247-8 295 34 503-28 738-6l3151 145c402-3 424 94 730 100 405 8 1355 52 1702 5l2342-223c923-43 2253 115 3090-56 153-31 567-80 742-88 578-25 1023-109 1524-142 935-61 1298-145 2183-366l1446-286c485-37 949-147 1422-227 293-48 425-72 672-161 859-306 799-512 1240-904 245-218 306-551 445-815 99-188 71-16 142-324 283-1228 263-2604-573-3616-205-248-766-616-874-860 328-215 654-535 846-869 401-698-27-1897-452-2525-319-471-483-528-805-883l177-203c650-618 546-754 472-1704 657-241 861-216 1247-729 629-834 733-2259 524-3199-127-569 257-494 583-1187 513-1087 93-2244-444-2988-464-642-1462-1365-2228-1660z"/> <path class="fil15" d="m19306 15136-2934 955c-331 101-605 224-974 334-864 257-2581 304-3575 93-148-31-366-118-484-57-634 330 1159 461 1257 467 2879 179 3709-590 6404-1398 105-32 393-132 450-182 152-132 21-268-144-212z"/> <path class="fil15" d="m39951 14361c-7 193 1 153 83 263 234 30 886-306 1268-369 520-85 998-129 1553-136 1878-24 2361 673 2668 722l155-173c-366-653-1993-810-2714-839-596-24-1134 38-1674 109l-1339 423z"/> <path class="fil15" d="m2102 16864c163-59 110-68 241-199-83-268-647-502-348-1965 177-867 627-969 734-1179 109-213-21-279-188-189-1119 605-1326 2983-439 3532z"/> <path class="fil15" d="m33412 22331c-126-137-174-169-340-39-727 566-998 988-1543 1451-142 121-553 452-527 652 50 390 528-214 590-269 274-244 1751-1587 1820-1795z"/> <path class="fil15" d="m16615 24589c-103-35-84-16-179-30l-233-45c-167-584 459-634 858-613 154 574 541 42 186-241-230-183-891-89-1083 69-211 174-477 548-251 921 147 244 846 409 702-61z"/> <path class="fil15" d="m4617 24120c284 266 231 38 409-113 429-365 964 293 507 627-159 116-441 132-608 226 28 460 705 52 718 42 202-152 426-422 347-835-127-665-1347-576-1373 53z"/> <path class="fil15" d="m18912 24261c92-42 493-719 898-494 212 118 294 441-8 678-320-56-72-98-365-170l-155 150c58 121 176 250 327 287 1013 242 915-1850-398-1097-243 139-629 409-299 646z"/> <path class="fil15" d="m13858 25459c-129-171-138-82-300-217-39-531 343-607 844-557 86 199-81 123 90 346 360-56 365-472 64-607-313-140-826-46-1003 83-837 609 86 1535 305 952z"/> <path class="fil15" d="m22457 24406c229 183 152 32 371-68 185-84 641-119 726 116 62 169-2 361-162 419-380 137-178-184-519-170-141 617 647 507 870 256 131-147 261-571 79-776-273-307-1339-213-1365 223z"/> <path class="fil15" d="m8130 24500-345-107c-43-326-88-406 205-543 575-270 640-136 805 82 98 129-48 2 127 128 494-262-261-990-1219-388-848 533 468 1601 427 828z"/> <path class="fil15" d="m41543 17599c-124-477-930 266-1086 417-188 182-826 868-849 1096-15 151 57 233 208 168 110-46 141-156 204-275 136-258 267-380 451-552 163-152 302-364 460-483 211-158 463-145 612-371z"/> <path class="fil15" d="m42447 23419c274 48 427-206 743-273 475-100 520 196 359 488-360 81-451-191-542 93-62 194 804 371 926-234 31-154-8-355-74-471-238-410-1471-81-1412 397z"/> <path class="fil15" d="m35439 24507c229 365 320-188 761-15 106 261 31 375-79 553-306-41-15 4-198-85-97-48-7-103-141-33-393 203 577 782 766-23 88-378 0-699-322-756-157-28-712 41-787 359z"/> <path class="fil15" d="m40569 25559c185-92 281-571 696-524 172 20 98-23 148 123 14 42 6 252-11 297-108 273-230-12-246 378 460 346 830-593 364-1137-499-23-1470 589-951 863z"/> <path class="fil15" d="m33998 25916s-118-85-8-284c119-219 414-121 369-340-78-382-1012 183-705 753 175 325 824 333 996-18 127-259-70-522-284-237l-68 101c-9 9-19 21-29 28-136 97-161 57-271-3z"/> <path class="fil15" d="m17844 25600c837-470 710 13 840 225 661-95 18-1079-861-603-636 345-29 1064 143 782 77-128-71-256-122-404z"/> <path class="fil15" d="m3154 16666c51-102 83-205 111-315-251-210-322-230-425-623-70-263-34-671-167-865-235 6-213 154-214 384-2 452-12 704 296 1094 148 187 141 310 399 325z"/> <path class="fil15" d="m26387 25691c295-135 314-88 653-35 53 260-28 233 143 335 555-235-217-1054-940-545-121 85-183 156-197 323-19 217 64 256 207 351 83 54 223 158 284-3 112-302-104-15-150-426z"/> <path class="fil15" d="m43706 25391c88-221-68-181-79-470 126-67 374-190 567-156 328 59 103 279 473 116-1-310-147-331-448-390-243-47-1093 74-916 582 59 169 161 447 403 318z"/> <path class="fil15" d="m5530 28794c239-214 198-291 139-682-76-504 134-514 58-880-458-72-418 261-424 645-6 357-38 801 227 917z"/> <path class="fil15" d="m12307 21579c172-112 176-70 272-294 54-127 111-311 171-462 69-176 365-753 234-894-178-191-280 99-318 216-109 332-406 997-473 1311l114 123z"/> <path class="fil15" d="m10507 4069c-539 295-977 1864-455 1410 234-203 49-417 386-883 98-135 237-219 305-338 117-206-52-290-236-189z"/> <path class="fil15" d="m25538 22702c-25-336-373-416-683-504-208-59-331-58-538-101-190-39-356-170-455-1-153 260 531 309 763 364 408 98 633 342 913 242z"/> <path class="fil15" d="m23676 25987c442 115 569-716 921-535 207 106 38-31 107 167 33 94 15 101 68 218 196-68 382-137 206-448-393-694-1287 224-1302 598z"/> <path class="fil15" d="m16019 29305c205-251 27-519-3-829-30-317 185-858-155-712-273 117-220 1477 158 1541z"/> <path class="fil15" d="m43360 29205c183-44 187-73 295-156-1-320-120-1434-497-1207-212 128 6 261 108 647 94 350-38 526 94 716z"/> <path class="fil15" d="m20521 25846c366-86 106-262 507-338 421-79 196 216 283 452l234-5c459-1111-1350-811-1024-109z"/> <path class="fil15" d="m30569 17995c232 180 373 64 764-37 254-65 562-102 772-207 3-260-28-244-254-212l-950 206c-265 69-292 7-332 250z"/> <path class="fil15" d="m9121 25132c404 80 39 261 414 248 174-267-31-694-681-531-247 714 338 919 407 649 22-89-20-90-55-157-72-138-56 64-85-209z"/> <path class="fil15" d="m24470 29672c288-28 241-110 299-726 18-200 236-773 60-862-307-154-422 1332-359 1588z"/> <path class="fil15" d="m10030 30149c-206 200 396 1408 663 1146 182-177-105-227-276-610-87-196-115-800-387-536z"/> <path class="fil15" d="m40899 23636c314 160 280-244 452 48-98 166 37 62-177 123-3 0-185 20-217 27l90 252c800 124 789-1031 110-784l-258 334z"/> <path class="fil15" d="m6294 25644c349 153 264-638 740-207 177 160 3 42 242 187 210-473-377-635-440-639-321-23-505 248-553 514l11 145z"/> <path class="fil15" d="m34579 31425c400 209 464-1091 362-1200-110-117-243-33-283 61-70 167 64 447-61 792-84 231-156 164-18 347z"/> <path class="fil15" d="m41902 31471 268 57c73-416 376-1024 76-1355-326 77-147 295-186 566-41 290-172 431-158 732z"/> <path class="fil15" d="m17960 7074 234-109c-41-1207-834-1347-605-870 32 68 121 125 188 295 88 228 64 517 183 684z"/> <path class="fil15" d="m11718 29187c54-44 89-76 153-112-60-217-144-279-180-525-25-175-5-140 18-294 8-56 18-86 19-144l-31-176c-299-115-297 298-293 592 6 435 62 471 314 659z"/> <path class="fil15" d="m26305 3440c205-138 264-209 163-517-52-161-140-562-285-603-506-140 121 1120 122 1120z"/> <path class="fil15" d="m11399 5262c-180 211-95 449-170 779-5 23-214 724 91 612 151-55 244-1164 244-1165-9-185-25-164-165-226z"/> <path class="fil15" d="m34841 6572c327 26 244-252 209-522-40-313 67-616-225-689-281 38 16 1210 16 1211z"/> <path class="fil15" d="m34653 9385c22 285 91 272 28 630-25 138-220 580 80 425 230-120 365-940 123-1195-207 33-69-14-231 140z"/> <path class="fil15" d="m19216 32106c345-105 1094-1160 893-1285-253-157-257 484-769 940-147 131-270 148-124 345z"/> <path class="fil15" d="m38238 31889c246 66 278-157 323-404 60-328 145-457-8-676-294 18-267 109-284 392-15 248-132 508-31 688z"/> <path class="fil15" d="m36350 5370c394-28 328-206 227-497-107-310-55-429-269-648-265 84-171 207-97 449 76 246 83 487 139 696z"/> <path class="fil15" d="m22572 7494 190-135c-15-185-68-409-55-635 10-175 88-622-181-442-113 75-226 964 46 1212z"/> <path class="fil15" d="m30076 31766c260-4 255-207 319-470 43-174 191-621 6-721-238-127-215 452-229 528-42 245-205 451-96 663z"/> <path class="fil15" d="m4923 8721c496 68 251-76 359-485 67-256 287-441 78-656-272 140-406 737-437 1141z"/> <path class="fil15" d="m42371 6902c27 164 93 220 138 389s21 310 59 446l202 68c181-191 140-260 60-533-83-284-72-395-312-501l-147 131z"/> <path class="fil15" d="m15490 6790c380-18 240-468 105-925-49-166-41-193-230-208-109 220 106 1095 125 1133z"/> <path class="fil15" d="m17665 3645c362 47 270-264 364-570 77-251 354-598-14-625-73 97-407 988-350 1195z"/> <path class="fil15" d="m28703 6865c301 21 242-225 184-440-46-167-115-565-234-610-426-163 50 1049 50 1050z"/> <path class="fil15" d="m32535 3789c363-144 116-348 12-579-73-163-106-342-210-458l-192-3c-89 219 5 340 126 531 115 181 125 392 264 509z"/> <path class="fil15" d="m32763 29350c188-40 54-14 246-149 22-291 8-621-87-830-471-63-291 132-229 377 78 308-83 359 70 602z"/> <path class="fil15" d="m7753 31604c157-170 48-280-45-565-54-167-120-461-203-610-381 161 71 1075 248 1175z"/> <path class="fil15" d="m24062 32249c1 0 11 157 174-38 43-53 79-212 92-281 39-197 65-386 42-607-333-46-244 50-357 704-38 222-68 135 49 222z"/> <path class="fil15" d="m30134 23931c106 42 146 81 305-82 61-62 119-178 174-248 160-202 323-218 179-463-200 35-141 19-267 160-227 256-457 457-391 633z"/> <path class="fil15" d="m5515 21380c114 66 132 57 260 94 123-105 146-160 253-265 119-120 160-141 169-364-245-122-196-63-368 108-171 169-275 110-314 427z"/> <path class="fil15" d="m31820 7393c295-16 254-156 199-402-67-302-19-433-311-477-56 204 25 705 112 879z"/> <path class="fil15" d="m29148 24025c155-103 98-233 202-434 107-206 140-196 108-456-259 14-229 176-352 407-190 357-160 419 42 483z"/> <path class="fil15" d="m22997 2726c208-144 151-471 68-823l-210-5c-105 268-52 694 142 828z"/> <path class="fil15" d="m3927 22754c7 250 108 222 73 420-31 176-137 99 18 311 394-8 287-585 164-799l-255 68z"/> <path class="fil15" d="m6225 21486 115 146c142-45 758-403 540-605-88-82-248 114-338 178-153 108-220 144-317 281z"/> <path class="fil15" d="m7027 8614c121-92 127-130 135-342 10-237 26-323-179-357-153 170-68 129-95 412-23 242-99 254 139 287z"/> <path class="fil15" d="m30452 3251c4-197-44-336-89-503-51-183-24-291-250-263-49 193 8 289 67 451 98 263 5 268 272 315z"/> <path class="fil15" d="m21034 4495c47-125-39-187-37-306 2-170 97-179 28-345-82 33-193 30-264 369-20 94-18 462 273 282z"/> <path class="fil15" d="m38971 14841c-5-3 33-172-362 64-280 167-324 505 163 212 121-73 239-106 199-276z"/> <path class="fil15" d="m22990 17795 277-9c101-123 95-97 114-293-274-179-524-56-391 302z"/> <path class="fil15" d="m39438 19678s-93-133-221-12c-312 296 431 514 221 12z"/> <path class="fil15" d="m39170 20560c5-62 201-129 14-384-237 6-387 320-14 384z"/> <path class="fil15" d="m11955 22415c150-54 229-95 185-310-192-110-274-44-310 182 62 76 53 60 125 128z"/> <path class="fil15" d="m29355 18510c142-2 157 31 239-49 129-128-11-224-11-224-308-134-289 82-228 273z"/> <path class="fil15" d="m29800 18196c183 307 479 110 271-168-216-20-197 24-271 168z"/> <path class="fil15" d="m11936 23128c-25-197-35-206-197-236-96 91-92 60-126 251l179 117 144-132z"/> <path class="fil15" d="m22276 17215c-122-103-397-119-317 134 20 64 86 121 190 82 148-55 120-84 127-216z"/> <path class="fil15" d="m10229 16297c3 1 55 176 228 0 68-69 40-129 69-189-113-78-38-59-253-54-82 165-99 70-44 243z"/> <path class="fil15" d="m38952 21145c-278 52-264 291-102 340 268 81 149-252 102-340z"/> <polygon class="fil15" points="9396 16106 9607 16104 9614 15823 9384 15821"/> <path class="fil15" d="m25405 5106c120-124 93-118-20-223-63 184-38 129 20 223z"/> </svg>